<svg width="81" height="14" viewBox="0 0 81 14" fill="none" xmlns="http://www.w3.org/2000/svg">
<path d="M9.66569 3.89013L13.5552 4.43869C13.8773 4.48268 14.148 4.70003 14.2508 4.9976C14.3537 5.29776 14.2698 5.6238 14.037 5.84633L11.2166 8.49082L11.8825 12.2842C11.9366 12.5947 11.804 12.9104 11.5333 13.0941C11.2653 13.2778 10.9108 13.3011 10.6212 13.1536L7.14577 11.3811L3.6731 13.1536C3.38078 13.3011 3.02621 13.2778 2.75824 13.0941C2.49028 12.9104 2.35495 12.5947 2.41179 12.2842L3.07763 8.49082L0.25673 5.84633C0.0236848 5.6238 -0.0591397 5.29776 0.0431728 4.9976C0.145215 4.70003 0.415071 4.48268 0.739602 4.43869L4.62585 3.89013L6.36896 0.465998C6.51241 0.180951 6.81556 0 7.14577 0C7.4787 0 7.78184 0.180951 7.9253 0.465998L9.66569 3.89013Z" fill="#0065FC"/>
<path d="M26.3422 3.89013L30.2317 4.43869C30.5538 4.48268 30.8245 4.70003 30.9273 4.9976C31.0302 5.29776 30.9463 5.6238 30.7135 5.84633L27.8931 8.49082L28.559 12.2842C28.6131 12.5947 28.4805 12.9104 28.2098 13.0941C27.9419 13.2778 27.5873 13.3011 27.2977 13.1536L23.8223 11.3811L20.3496 13.1536C20.0573 13.3011 19.7027 13.2778 19.4348 13.0941C19.1668 12.9104 19.0315 12.5947 19.0883 12.2842L19.7541 8.49082L16.9332 5.84633C16.7002 5.6238 16.6174 5.29776 16.7197 4.9976C16.8217 4.70003 17.0916 4.48268 17.4161 4.43869L21.3024 3.89013L23.0455 0.465998C23.1889 0.180951 23.4921 0 23.8223 0C24.1552 0 24.4584 0.180951 24.6018 0.465998L26.3422 3.89013Z" fill="#0065FC"/>
<path d="M43.0185 3.89013L46.908 4.43869C47.2301 4.48268 47.5007 4.70003 47.6036 4.9976C47.7064 5.29776 47.6225 5.6238 47.3898 5.84633L44.5694 8.49082L45.2352 12.2842C45.2894 12.5947 45.1568 12.9104 44.8861 13.0941C44.6181 13.2778 44.2635 13.3011 43.9739 13.1536L40.4986 11.3811L37.0259 13.1536C36.7336 13.3011 36.379 13.2778 36.111 13.0941C35.8431 12.9104 35.7077 12.5947 35.7646 12.2842L36.4304 8.49082L33.6095 5.84633C33.3765 5.6238 33.2936 5.29776 33.396 4.9976C33.498 4.70003 33.7679 4.48268 34.0924 4.43869L37.9786 3.89013L39.7217 0.465998C39.8652 0.180951 40.1683 0 40.4986 0C40.8315 0 41.1346 0.180951 41.2781 0.465998L43.0185 3.89013Z" fill="#0065FC"/>
<path d="M59.695 3.89013L63.5845 4.43869C63.9066 4.48268 64.1773 4.70003 64.2801 4.9976C64.383 5.29776 64.2991 5.6238 64.0663 5.84633L61.2459 8.49082L61.9118 12.2842C61.9659 12.5947 61.8333 12.9104 61.5626 13.0941C61.2946 13.2778 60.9401 13.3011 60.6504 13.1536L57.1751 11.3811L53.7024 13.1536C53.4101 13.3011 53.0555 13.2778 52.7875 13.0941C52.5196 12.9104 52.3842 12.5947 52.4411 12.2842L53.1069 8.49082L50.286 5.84633C50.053 5.6238 49.9702 5.29776 50.0725 4.9976C50.1745 4.70003 50.4444 4.48268 50.7689 4.43869L54.6552 3.89013L56.3983 0.465998C56.5417 0.180951 56.8449 0 57.1751 0C57.508 0 57.8111 0.180951 57.9546 0.465998L59.695 3.89013Z" fill="#0065FC"/>
<path d="M76.3715 3.89013L80.261 4.43869C80.5831 4.48268 80.8538 4.70003 80.9566 4.9976C81.0595 5.29776 80.9756 5.6238 80.7428 5.84633L77.9224 8.49082L78.5883 12.2842C78.6424 12.5947 78.5098 12.9104 78.2391 13.0941C77.9712 13.2778 77.6166 13.3011 77.327 13.1536L73.8516 11.3811L70.3789 13.1536C70.0866 13.3011 69.732 13.2778 69.4641 13.0941C69.1961 12.9104 69.0608 12.5947 69.1176 12.2842L69.7834 8.49082L66.9625 5.84633C66.7295 5.6238 66.6467 5.29776 66.749 4.9976C66.851 4.70003 67.1209 4.48268 67.4454 4.43869L71.3317 3.89013L73.0748 0.465998C73.2182 0.180951 73.5214 0 73.8516 0C74.1845 0 74.4877 0.180951 74.6311 0.465998L76.3715 3.89013Z" fill="#F2F2F2"/>
</svg>
