<svg width="12" height="12" viewBox="0 0 12 12" fill="none" xmlns="http://www.w3.org/2000/svg">
<path d="M8.11416 3.52313L11.3794 4.01995C11.6498 4.05978 11.877 4.25663 11.9634 4.52613C12.0497 4.79797 11.9793 5.09325 11.7839 5.29479L9.41617 7.6898L9.97515 11.1253C10.0206 11.4065 9.90925 11.6924 9.68203 11.8588C9.45707 12.0252 9.1594 12.0463 8.91627 11.9127L5.99869 10.3074L3.08337 11.9127C2.83797 12.0463 2.5403 12.0252 2.31535 11.8588C2.09039 11.6924 1.97678 11.4065 2.0245 11.1253L2.58348 7.6898L0.215323 5.29479C0.0196812 5.09325 -0.04985 4.79797 0.0360415 4.52613C0.121706 4.25663 0.34825 4.05978 0.620695 4.01995L3.88321 3.52313L5.34655 0.422036C5.46698 0.16388 5.72147 0 5.99869 0C6.27818 0 6.53267 0.16388 6.6531 0.422036L8.11416 3.52313Z" fill="#F2F2F2"/>
</svg>
